<?xml version="1.0" encoding="UTF-8"?> <!-- Generator: Adobe Illustrator 24.0.0, SVG Export Plug-In . SVG Version: 6.00 Build 0) --> <svg xmlns="http://www.w3.org/2000/svg" xmlns:xlink="http://www.w3.org/1999/xlink" version="1.1" id="Capa_1" x="0px" y="0px" viewBox="0 0 40 28" style="enable-background:new 0 0 40 28;" xml:space="preserve"> <style type="text/css"> .st0{fill:#FFAA00;} </style> <path class="st0" d="M30.6,28c-5.2,0-9.4-4.2-9.4-9.4C21.2,8,25.5,1,25.7,0.7L26.2,0H33l-0.6,2C31.9,3.9,31,7.4,31,8.6 c0,0.3,0,0.5,0,0.6c2.4,0.1,4.6,1.1,6.3,2.8c1.7,1.8,2.7,4.1,2.7,6.6C40,23.8,35.8,28,30.6,28z M27.9,3.1c-1,2-3.6,7.7-3.6,15.5 c0,3.4,2.8,6.2,6.2,6.2s6.2-2.8,6.2-6.2s-2.7-6.2-6.1-6.2h-0.1c-1.4,0-2-0.7-2.4-1.3c-0.4-0.7-0.4-1.5-0.4-2.4c0-1.2,0.6-3.7,1-5.5 L27.9,3.1L27.9,3.1z M30.6,9.2L30.6,9.2L30.6,9.2z M9.4,28C4.2,28,0,23.8,0,18.6C0,8,4.3,1,4.5,0.7L4.9,0h6.8l-0.6,2 c-0.6,1.9-1.4,5.5-1.4,6.6c0,0.3,0,0.5,0,0.6c2.4,0.1,4.6,1.1,6.3,2.8c1.7,1.8,2.7,4.1,2.7,6.6C18.7,23.8,14.5,28,9.4,28z M6.7,3.1 c-1,2-3.6,7.7-3.6,15.5c0,3.4,2.8,6.2,6.2,6.2s6.2-2.8,6.2-6.2s-2.7-6.2-6.1-6.2l0,0c-1.4,0-2-0.7-2.4-1.3c-0.4-0.7-0.4-1.5-0.4-2.4 c0-1.2,0.6-3.7,1-5.5L6.7,3.1L6.7,3.1z M9.4,9.2L9.4,9.2L9.4,9.2z"></path> </svg> 